<svg width="30" height="30" viewBox="0 0 15 16" fill="none" xmlns="http://www.w3.org/2000/svg">
<path d="M9.80159 15.95H5.19839C4.96025 15.9496 4.73199 15.8548 4.5636 15.6864C4.39521 15.518 4.30042 15.2898 4.29999 15.0516V9.55003H1.20079C1.02645 9.54575 0.857194 9.49041 0.713997 9.39087C0.570799 9.29133 0.459954 9.15196 0.395195 8.99003C0.312312 8.81674 0.281135 8.62324 0.305397 8.43269C0.329659 8.24214 0.408332 8.06262 0.531995 7.91563L6.8328 1.04443C6.91759 0.951766 7.02079 0.877824 7.1358 0.827335C7.25081 0.776845 7.3751 0.750922 7.5007 0.751223C7.62631 0.751525 7.75047 0.778044 7.86523 0.829084C7.98 0.880124 8.08285 0.954561 8.16719 1.04763L14.4648 7.91243C14.5898 8.05943 14.6696 8.23947 14.6946 8.43082C14.7196 8.62217 14.6887 8.81666 14.6056 8.99083C14.541 9.15257 14.4305 9.29183 14.2875 9.39136C14.1446 9.4909 13.9757 9.54634 13.8016 9.55083H10.7V15.0524C10.6994 15.2904 10.6045 15.5185 10.4361 15.6867C10.2677 15.8549 10.0396 15.9496 9.80159 15.95ZM5.29999 14.95H9.69999V8.55003H13.6472L7.49999 1.79803L1.30639 8.55003H5.29999V14.95ZM1.28159 8.57723L1.27199 8.59003C1.27999 8.58523 1.28319 8.58203 1.28159 8.57723Z" fill="#F2F4F5"/>
</svg>
