<svg width="30" height="30" viewBox="0 0 16 16" fill="none" xmlns="http://www.w3.org/2000/svg">
<path d="M7.85999 15.75C7.73413 15.75 7.60969 15.7235 7.49475 15.6722C7.3798 15.6209 7.27692 15.5461 7.19279 15.4524L0.895193 8.58765C0.770424 8.44068 0.690762 8.26079 0.665784 8.06963C0.640806 7.87846 0.671576 7.68415 0.754393 7.51005C0.819045 7.34837 0.929645 7.20917 1.07253 7.10965C1.21541 7.01012 1.38432 6.95464 1.55839 6.95005H4.65999V1.44845C4.66042 1.21031 4.7552 0.982042 4.9236 0.813651C5.09199 0.64526 5.32025 0.550472 5.55839 0.550049H10.1616C10.3997 0.550472 10.628 0.64526 10.7964 0.813651C10.9648 0.982042 11.0596 1.21031 11.06 1.44845V6.95005H14.1592C14.3335 6.95433 14.5028 7.00967 14.646 7.10921C14.7892 7.20875 14.9 7.34812 14.9648 7.51005C15.0479 7.68356 15.0792 7.87736 15.055 8.06821C15.0307 8.25906 14.9519 8.43886 14.828 8.58605L8.52719 15.4572C8.44244 15.5498 8.33934 15.6236 8.22446 15.674C8.10958 15.7244 7.98545 15.7503 7.85999 15.75ZM1.71279 7.95005L7.85999 14.702L14.0528 7.95005H10.06V1.55005H5.65999V7.95005H1.71279ZM14.088 7.91005C14.08 7.91005 14.0768 7.91565 14.0784 7.92045L14.088 7.91005Z" fill="#ff7f50"/>
</svg>
