<svg width="19" height="20" viewBox="0 0 19 20" fill="none" xmlns="http://www.w3.org/2000/svg">
<path d="M7.20815 19.5644C7.08757 19.5651 6.96876 19.5354 6.86267 19.4781C6.75659 19.4207 6.66665 19.3376 6.60115 19.2364C6.52406 19.1183 6.48305 18.9804 6.48315 18.8394V15.6924H3.10815C2.41237 15.6911 1.74546 15.4141 1.25346 14.9221C0.761462 14.4301 0.484476 13.7632 0.483154 13.0674V3.31738C0.484212 2.62151 0.761114 1.95445 1.25317 1.4624C1.74522 0.970342 2.41229 0.693441 3.10815 0.692383H15.8582C16.5539 0.693704 17.2209 0.97069 17.7129 1.46269C18.2048 1.95468 18.4818 2.6216 18.4832 3.31738V13.0674C18.4818 13.7632 18.2048 14.4301 17.7129 14.9221C17.2209 15.4141 16.5539 15.6911 15.8582 15.6924H11.6972L7.69715 19.3734C7.56374 19.4959 7.38929 19.564 7.20815 19.5644ZM3.10815 1.94238C2.74364 1.94291 2.39421 2.08795 2.13647 2.3457C1.87872 2.60344 1.73368 2.95287 1.73315 3.31738V13.0674C1.73368 13.4319 1.87872 13.7813 2.13647 14.0391C2.39421 14.2968 2.74364 14.4419 3.10815 14.4424H7.10815C7.27391 14.4424 7.43289 14.5082 7.5501 14.6254C7.66731 14.7427 7.73315 14.9016 7.73315 15.0674V17.6424L11.0332 14.6074C11.1489 14.5013 11.3002 14.4425 11.4572 14.4424H15.8572C16.2217 14.4419 16.5711 14.2968 16.8288 14.0391C17.0866 13.7813 17.2316 13.4319 17.2322 13.0674V3.31738C17.2316 2.95305 17.0867 2.60377 16.8292 2.34605C16.5717 2.08833 16.2225 1.94318 15.8582 1.94238H3.10815Z" fill="#c5d0e6"/>
</svg>
